HIERARCHY
ROOT Hips
{
	OFFSET 0.000000 0.000000 0.000000
	CHANNELS 6 Xposition Yposition Zposition Zrotation Yrotation Xrotation 
	JOINT LHipJoint
	{
		OFFSET 0.000000 0.000000 0.000000
		CHANNELS 3 Zrotation Yrotation Xrotation
		JOINT LeftUpLeg
		{
			OFFSET 1.363060 -1.794630 0.839290
			CHANNELS 3 Zrotation Yrotation Xrotation
			JOINT LeftLeg
			{
				OFFSET 2.448110 -6.726130 0.000000
				CHANNELS 3 Zrotation Yrotation Xrotation
				JOINT LeftFoot
				{
					OFFSET 2.562200 -7.039590 0.000000
					CHANNELS 3 Zrotation Yrotation Xrotation
					JOINT LeftToeBase
					{
						OFFSET 0.157640 -0.433110 2.322550
						CHANNELS 3 Zrotation Yrotation Xrotation
						End Site
						{
							OFFSET 0.000000 0.000000 0.000000
						}
					}
				}
			}
		}
	}
	JOINT RHipJoint
	{
		OFFSET 0.000000 0.000000 0.000000
		CHANNELS 3 Zrotation Yrotation Xrotation
		JOINT RightUpLeg
		{
			OFFSET -1.305520 -1.794630 0.839290
			CHANNELS 3 Zrotation Yrotation Xrotation
			JOINT RightLeg
			{
				OFFSET -2.542530 -6.985550 0.000000
				CHANNELS 3 Zrotation Yrotation Xrotation
				JOINT RightFoot
				{
					OFFSET -2.568260 -7.056230 0.000000
					CHANNELS 3 Zrotation Yrotation Xrotation
					JOINT RightToeBase
					{
						OFFSET -0.164730 -0.452590 2.363150
						CHANNELS 3 Zrotation Yrotation Xrotation
						End Site
						{
							OFFSET 0.000000 0.000000 0.000000
						}
					}
				}
			}
		}
	}
	JOINT LowerBack
	{
		OFFSET 0.000000 0.000000 0.000000
		CHANNELS 3 Zrotation Yrotation Xrotation
		JOINT Spine
		{
			OFFSET 0.028270 2.035590 -0.193380
			CHANNELS 3 Zrotation Yrotation Xrotation
			JOINT Spine1
			{
				OFFSET 0.056720 2.048850 -0.042750
				CHANNELS 3 Zrotation Yrotation Xrotation
				JOINT Neck
				{
					OFFSET 0.000000 0.000000 0.000000
					CHANNELS 3 Zrotation Yrotation Xrotation
					JOINT Neck1
					{
						OFFSET -0.054170 1.746240 0.172020
						CHANNELS 3 Zrotation Yrotation Xrotation
						JOINT Head
						{
							OFFSET 0.104070 1.761360 -0.123970
							CHANNELS 3 Zrotation Yrotation Xrotation
							End Site
							{
								OFFSET 0.000000 0.000000 0.000000
							}
						}
					}
				}
				JOINT LeftShoulder
				{
					OFFSET 0.000000 0.000000 0.000000
					CHANNELS 3 Zrotation Yrotation Xrotation
					JOINT LeftArm
					{
						OFFSET 3.362410 1.200890 -0.311210
						CHANNELS 3 Zrotation Yrotation Xrotation
						JOINT LeftForeArm
						{
							OFFSET 4.983000 -0.000000 -0.000000
							CHANNELS 3 Zrotation Yrotation Xrotation
							JOINT LeftHand
							{
								OFFSET 3.483560 -0.000000 -0.000000
								CHANNELS 3 Zrotation Yrotation Xrotation
								JOINT LeftFingerBase
								{
									OFFSET 0.000000 0.000000 0.000000
									CHANNELS 3 Zrotation Yrotation Xrotation
									JOINT LeftHandIndex1
									{
										OFFSET 0.715260 -0.000000 -0.000000
										CHANNELS 3 Zrotation Yrotation Xrotation
										End Site
										{
											OFFSET 0.000000 0.000000 0.000000
										}
									}
								}
								JOINT LThumb
								{
									OFFSET 0.000000 0.000000 0.000000
									CHANNELS 3 Zrotation Yrotation Xrotation
									End Site
									{
										OFFSET 0.000000 0.000000 0.000000
									}
								}
							}
						}
					}
				}
				JOINT RightShoulder
				{
					OFFSET 0.000000 0.000000 0.000000
					CHANNELS 3 Zrotation Yrotation Xrotation
					JOINT RightArm
					{
						OFFSET -3.136600 1.374050 -0.404650
						CHANNELS 3 Zrotation Yrotation Xrotation
						JOINT RightForeArm
						{
							OFFSET -5.241900 -0.000000 -0.000000
							CHANNELS 3 Zrotation Yrotation Xrotation
							JOINT RightHand
							{
								OFFSET -3.444170 -0.000000 -0.000000
								CHANNELS 3 Zrotation Yrotation Xrotation
								JOINT RightFingerBase
								{
									OFFSET 0.000000 0.000000 0.000000
									CHANNELS 3 Zrotation Yrotation Xrotation
									JOINT RightHandIndex1
									{
										OFFSET -0.622530 -0.000000 -0.000000
										CHANNELS 3 Zrotation Yrotation Xrotation
										End Site
										{
											OFFSET 0.000000 0.000000 0.000000
										}
									}
								}
								JOINT RThumb
								{
									OFFSET 0.000000 0.000000 0.000000
									CHANNELS 3 Zrotation Yrotation Xrotation
									End Site
									{
										OFFSET 0.000000 0.000000 0.000000
									}
								}
							}
						}
					}
				}
			}
		}
	}
}
MOTION
Frames: 12
Frame Time: 0.041667
-14.471410 12.741265 2.643565 -101.422809 88.575513 -17.852655 -9.301434 -2.737812 2.662405 -2.769032 -8.689494 -131.622697 -0.142906 10.165557 81.665402 1.915403 -1.339535 -29.804424 -0.887600 0.000000 -60.478800 8.543813 0.873239 3.873419 3.166893 15.942727 -132.936989 -0.599386 -10.493884 84.346393 -4.343972 -4.945557 -35.028312 3.279500 -0.000000 -43.176900 0.334797 2.272970 -0.006284 -0.394466 2.171320 -1.806264 -1.773680 2.019213 1.291419 5.864798 -15.594776 -10.840494 0.000000 0.000000 0.000000 0.000000 0.000000 0.000000 -11.022915 14.413525 3.607526 -64.391826 17.115029 -29.173971 0.634966 -11.248385 -0.012473 3.342475 -17.186186 -0.513175 -0.003110 0.241452 0.000000 0.000000 0.000000 0.000000 0.000000 0.000000 0.000000 8.967307 -11.557301 4.493475 65.794505 -24.205495 -15.472137 -0.029432 14.938748 -0.004339 -1.600859 5.701756 -0.083714 0.017613 -0.218070 0.000000 0.000000 0.000000 0.000000 0.000000 0.000000 0.000000 
-14.441241 12.725136 2.642575 -101.334986 88.573700 -17.671058 -9.308515 -2.738480 2.691628 -2.736310 -8.692346 -131.680821 -0.123790 10.177353 81.845950 1.950299 -1.311225 -30.075569 -0.913600 0.000000 -60.442200 8.551513 0.876357 3.898015 3.140119 15.943689 -133.010773 -0.632031 -10.506366 84.539873 -4.378030 -5.007240 -35.216156 3.330600 0.000000 -43.233800 0.321417 2.274832 -0.079063 -0.407230 2.171903 -1.835529 -1.794091 2.019269 1.281493 6.004082 -15.634634 -10.875366 0.000000 0.000000 0.000000 0.000000 0.000000 0.000000 -11.133129 14.459731 3.609296 -64.441877 16.957971 -28.999718 0.654247 -11.504801 -0.012854 3.623984 -16.955136 -0.549178 -0.005467 0.239828 0.000000 0.000000 0.000000 0.000000 0.000000 0.000000 0.000000 9.183035 -11.589118 4.484141 65.794028 -23.844899 -15.452494 -0.036297 15.221448 -0.004558 -1.644938 5.752451 -0.086814 0.017721 -0.220776 0.000000 0.000000 0.000000 0.000000 0.000000 0.000000 0.000000 
-14.409273 12.709437 2.641287 -101.162270 88.565588 -17.411185 -9.315576 -2.739109 2.726426 -2.694793 -8.688676 -131.724058 -0.105599 10.185738 82.023701 1.990399 -1.275859 -30.378630 -0.943900 0.000000 -60.359100 8.559669 0.877976 3.926613 3.119018 15.949111 -133.066280 -0.661801 -10.516787 84.725715 -4.412433 -5.061146 -35.419913 3.382700 -0.000000 -43.265000 0.307336 2.275933 -0.164956 -0.422078 2.171427 -1.869670 -1.819938 2.017934 1.272998 6.161320 -15.660232 -10.915189 0.000000 0.000000 0.000000 0.000000 0.000000 0.000000 -11.258215 14.516405 3.614400 -64.494903 16.772587 -28.728197 0.684730 -11.831432 -0.013320 4.110878 -16.442412 -0.604583 -0.010062 0.235807 0.000000 0.000000 0.000000 0.000000 0.000000 0.000000 0.000000 9.427215 -11.608287 4.474729 65.772521 -23.446917 -15.470913 -0.042932 15.484165 -0.004787 -1.693911 5.803511 -0.090114 0.017934 -0.223518 0.000000 0.000000 0.000000 0.000000 0.000000 0.000000 0.000000 
-14.375834 12.693956 2.639733 -100.877385 88.553403 -17.044939 -9.322542 -2.740884 2.766324 -2.641847 -8.678604 -131.750907 -0.086660 10.190193 82.201563 2.034337 -1.232755 -30.701823 -0.978000 -0.000000 -60.249200 8.568200 0.879109 3.959293 3.098102 15.956431 -133.106898 -0.689894 -10.524959 84.907362 -4.446310 -5.106420 -35.636025 3.434700 0.000000 -43.282300 0.291167 2.277267 -0.263140 -0.439063 2.170944 -1.908837 -1.849855 2.016394 1.265114 6.336522 -15.682849 -10.962658 0.000000 0.000000 0.000000 0.000000 0.000000 0.000000 -11.402991 14.578471 3.620097 -64.529904 16.557443 -28.419259 0.718140 -12.175270 -0.013814 4.670864 -15.833886 -0.661888 -0.015475 0.230708 0.000000 0.000000 0.000000 0.000000 0.000000 0.000000 0.000000 9.699039 -11.626006 4.465931 65.725522 -23.005398 -15.521329 -0.049695 15.737732 -0.005038 -1.749378 5.858472 -0.094014 0.018251 -0.226358 0.000000 0.000000 0.000000 0.000000 0.000000 0.000000 0.000000 
-14.340750 12.678805 2.637952 -100.437352 88.538293 -16.532901 -9.329091 -2.744736 2.810476 -2.576832 -8.662294 -131.761106 -0.065630 10.190685 82.381868 2.080591 -1.182042 -31.033551 -1.015000 0.000000 -60.132600 8.576607 0.880789 3.995704 3.074042 15.963125 -133.128646 -0.717272 -10.529789 85.085828 -4.478939 -5.143602 -35.860231 3.485900 0.000000 -43.301100 0.272341 2.279110 -0.372153 -0.458019 2.170775 -1.952256 -1.882816 2.015033 1.259004 6.528430 -15.713973 -11.020353 0.000000 0.000000 0.000000 0.000000 0.000000 0.000000 -11.570230 14.649756 3.624928 -64.528590 16.283160 -28.122125 0.749770 -12.461764 -0.014303 5.221676 -15.277386 -0.714292 -0.020763 0.225590 0.000000 0.000000 0.000000 0.000000 0.000000 0.000000 0.000000 9.994582 -11.654529 4.458085 65.649480 -22.504422 -15.592086 -0.057196 15.983260 -0.005335 -1.821022 5.907374 -0.098614 0.018788 -0.229159 0.000000 0.000000 0.000000 0.000000 0.000000 0.000000 0.000000 
-14.303883 12.664287 2.636023 -99.802994 88.522077 -15.840892 -9.334780 -2.751307 2.857701 -2.501423 -8.639510 -131.745771 -0.041609 10.186095 82.563440 2.127767 -1.122199 -31.360785 -1.054400 0.000000 -60.036000 8.584458 0.884264 4.035905 3.042694 15.966396 -133.127804 -0.745128 -10.529983 85.261382 -4.510338 -5.176674 -36.087561 3.536300 0.000000 -43.339000 0.248978 2.281221 -0.490831 -0.479479 2.170716 -2.000032 -1.918603 2.013693 1.253834 6.739373 -15.748941 -11.088735 0.000000 0.000000 0.000000 0.000000 0.000000 0.000000 -11.762697 14.722748 3.628576 -64.484702 15.939476 -27.879161 0.777116 -12.656446 -0.014764 5.714224 -14.850206 -0.760095 -0.025307 0.221049 0.000000 0.000000 0.000000 0.000000 0.000000 0.000000 0.000000 10.315702 -11.689779 4.451471 65.544779 -21.943228 -15.682702 -0.065453 16.228239 -0.005693 -1.912113 5.951393 -0.104414 0.019575 -0.231943 0.000000 0.000000 0.000000 0.000000 0.000000 0.000000 0.000000 
-14.265389 12.650624 2.634000 -98.944593 88.506193 -14.942958 -9.339125 -2.761173 2.906570 -2.417914 -8.611125 -131.695897 -0.013775 10.175221 82.745497 2.175239 -1.049664 -31.673564 -1.096500 -0.000000 -59.983000 8.591316 0.890957 4.079594 3.000870 15.962659 -133.097111 -0.774805 -10.523783 85.433755 -4.541186 -5.212811 -36.313034 3.587100 -0.000000 -43.413600 0.219697 2.282880 -0.617247 -0.503865 2.170089 -2.051873 -1.957257 2.011724 1.248520 6.970610 -15.783763 -11.167425 0.000000 0.000000 0.000000 0.000000 0.000000 0.000000 -11.978827 14.789671 3.631343 -64.401525 15.525502 -27.678690 0.799785 -12.761635 -0.015188 6.144701 -14.546219 -0.800798 -0.029013 0.217107 0.000000 0.000000 0.000000 0.000000 0.000000 0.000000 0.000000 10.662022 -11.727682 4.446545 65.411734 -21.318606 -15.786586 -0.074436 16.475661 -0.006123 -2.026207 5.989923 -0.111314 0.020655 -0.234717 0.000000 0.000000 0.000000 0.000000 0.000000 0.000000 0.000000 
-14.224747 12.638273 2.631935 -97.824203 88.492296 -13.809068 -9.341277 -2.774781 2.955751 -2.328100 -8.578474 -131.605289 0.018471 10.157256 82.927172 2.223302 -0.959082 -31.966408 -1.142300 0.000000 -59.989900 8.596372 0.902149 4.126198 2.945618 15.949585 -133.030345 -0.807916 -10.509549 85.603589 -4.572682 -5.261036 -36.532694 3.640200 0.000000 -43.538200 0.183322 2.283140 -0.749340 -0.531423 2.168018 -2.107497 -1.998684 2.008279 1.242300 7.222183 -15.812513 -11.255459 0.000000 0.000000 0.000000 0.000000 0.000000 0.000000 -12.215231 14.841923 3.633522 -64.284923 15.042110 -27.515410 0.817093 -12.778825 -0.015569 6.507591 -14.361013 -0.837401 -0.031797 0.213774 0.000000 0.000000 0.000000 0.000000 0.000000 0.000000 0.000000 11.030807 -11.762623 4.443675 65.252554 -20.627197 -15.894126 -0.083570 16.724677 -0.006631 -2.165067 6.023577 -0.119713 0.022066 -0.237469 0.000000 0.000000 0.000000 0.000000 0.000000 0.000000 0.000000 
-14.182312 12.627507 2.629816 -96.435446 88.480509 -12.437993 -9.340652 -2.792644 3.003917 -2.234865 -8.542143 -131.461592 0.055222 10.130576 83.106304 2.273178 -0.843578 -32.239238 -1.194000 0.000000 -60.064900 8.599087 0.918681 4.175208 2.876516 15.925144 -132.918266 -0.845629 -10.485524 85.769921 -4.606741 -5.332442 -36.743989 3.698700 0.000000 -43.719600 0.140274 2.281104 -0.885253 -0.561789 2.163693 -2.166669 -2.042643 2.002570 1.234131 7.492663 -15.825700 -11.350656 0.000000 0.000000 0.000000 0.000000 0.000000 0.000000 -12.468941 14.869665 3.635504 -64.141942 14.492972 -27.388113 0.828774 -12.710873 -0.015906 6.799247 -14.288887 -0.870502 -0.033608 0.211048 0.000000 0.000000 0.000000 0.000000 0.000000 0.000000 0.000000 11.417749 -11.785562 4.443158 65.069114 -19.868440 -15.995053 -0.092176 16.971077 -0.007215 -2.328283 6.054754 -0.129413 0.023815 -0.240201 0.000000 0.000000 0.000000 0.000000 0.000000 0.000000 0.000000 
-14.137651 12.618687 2.627643 -94.764620 88.470509 -10.822660 -9.336647 -2.814970 3.050234 -2.140826 -8.502709 -131.257207 0.096152 10.094363 83.281048 2.326949 -0.695848 -32.497691 -1.254400 -0.000000 -60.201000 8.598805 0.940674 4.226483 2.793115 15.890234 -132.755051 -0.888901 -10.450314 85.932049 -4.645578 -5.437659 -36.946639 3.766000 0.000000 -43.957400 0.090057 2.276494 -1.024185 -0.594851 2.156931 -2.229430 -2.088703 1.994439 1.223484 7.779714 -15.817112 -11.450550 0.000000 0.000000 0.000000 0.000000 0.000000 0.000000 -12.734799 14.860761 3.637396 -63.982001 13.886551 -27.302714 0.834428 -12.565799 -0.016197 7.017175 -14.320778 -0.900303 -0.034438 0.208889 0.000000 0.000000 0.000000 0.000000 0.000000 0.000000 0.000000 11.817152 -11.790879 4.445645 64.863586 -19.038503 -16.075640 -0.099262 17.203288 -0.007866 -2.513261 6.080943 -0.140312 0.025899 -0.242822 0.000000 0.000000 0.000000 0.000000 0.000000 0.000000 0.000000 
-14.090793 12.612162 2.625298 -92.837104 88.461846 -8.994022 -9.328622 -2.841727 3.094015 -2.048165 -8.462009 -130.981526 0.140384 10.047083 83.447995 2.387520 -0.507888 -32.752874 -1.327100 -0.000000 -60.386200 8.595229 0.968378 4.279165 2.698671 15.843415 -132.530556 -0.937906 -10.402900 86.088034 -4.691126 -5.585316 -37.142391 3.845600 -0.000000 -44.244700 0.035175 2.267955 -1.164720 -0.629272 2.146494 -2.295374 -2.136062 1.982665 1.210173 8.077637 -15.770853 -11.551466 0.000000 0.000000 0.000000 0.000000 0.000000 0.000000 -13.006472 14.810920 3.640264 -63.813595 13.216142 -27.279973 0.834442 -12.326224 -0.016450 7.157601 -14.467800 -0.927503 -0.034258 0.207381 0.000000 0.000000 0.000000 0.000000 0.000000 0.000000 0.000000 12.219589 -11.763761 4.450747 64.641189 -18.139607 -16.132525 -0.104095 17.408632 -0.008575 -2.718019 6.114565 -0.152611 0.028299 -0.245411 0.000000 0.000000 0.000000 0.000000 0.000000 0.000000 0.000000 
-14.041645 12.608427 2.622733 -90.666685 88.453287 -6.972946 -9.315944 -2.872636 3.134356 -1.960606 -8.420464 -130.623498 0.186480 9.987646 83.603327 2.457787 -0.273648 -33.019207 -1.415600 -0.000000 -60.594800 8.588064 1.001549 4.332297 2.598509 15.785384 -132.233316 -0.991936 -10.342403 86.234308 -4.744866 -5.780635 -37.334982 3.940100 -0.000000 -44.567300 -0.022341 2.254496 -1.305310 -0.663798 2.131517 -2.363850 -2.183722 1.966398 1.194576 8.378839 -15.677122 -11.649845 0.000000 0.000000 0.000000 0.000000 0.000000 0.000000 -13.277301 14.716382 3.644681 -63.645914 12.479463 -27.331315 0.829233 -11.986343 -0.016679 7.225232 -14.732131 -0.953103 -0.033158 0.206549 0.000000 0.000000 0.000000 0.000000 0.000000 0.000000 0.000000 12.612804 -11.695377 4.458490 64.406690 -17.166929 -16.160961 -0.106040 17.566358 -0.009331 -2.939974 6.161746 -0.166409 0.030996 -0.247945 0.000000 0.000000 0.000000 0.000000 0.000000 0.000000 0.000000 
